<?xml version="1.0" encoding="UTF-8" standalone="no"?>
<!-- Created with Inkscape (http://www.inkscape.org/) -->

<svg
   width="180.28117mm"
   height="26.511368mm"
   viewBox="0 0 180.28117 26.511368"
   version="1.1"
   id="svg1"
   inkscape:version="1.3 (0e150ed6c4, 2023-07-21)"
   sodipodi:docname="SFLogo.svg"
   xmlns:inkscape="http://www.inkscape.org/namespaces/inkscape"
   xmlns:sodipodi="http://sodipodi.sourceforge.net/DTD/sodipodi-0.dtd"
   xmlns:xlink="http://www.w3.org/1999/xlink"
   xmlns="http://www.w3.org/2000/svg"
   xmlns:svg="http://www.w3.org/2000/svg">
  <sodipodi:namedview
     id="namedview1"
     pagecolor="#ffffff"
     bordercolor="#999999"
     borderopacity="1"
     inkscape:showpageshadow="2"
     inkscape:pageopacity="0"
     inkscape:pagecheckerboard="0"
     inkscape:deskcolor="#d1d1d1"
     inkscape:document-units="mm"
     inkscape:zoom="2"
     inkscape:cx="344.25"
     inkscape:cy="289.75"
     inkscape:window-width="2400"
     inkscape:window-height="1261"
     inkscape:window-x="2391"
     inkscape:window-y="-9"
     inkscape:window-maximized="1"
     inkscape:current-layer="layer1" />
  <defs
     id="defs1">
    <linearGradient
       id="linearGradient36">
      <stop
         style="stop-color:#fb3640;stop-opacity:1;"
         offset="0"
         id="stop33" />
      <stop
         style="stop-color:#fb3640;stop-opacity:1;"
         offset="0.52083331"
         id="stop34" />
      <stop
         style="stop-color:#605f5e;stop-opacity:1;"
         offset="0.52083331"
         id="stop35" />
      <stop
         style="stop-color:#605f5e;stop-opacity:1;"
         offset="1"
         id="stop36" />
    </linearGradient>
    <linearGradient
       inkscape:collect="always"
       xlink:href="#linearGradient36"
       id="linearGradient33"
       x1="36.835777"
       y1="45.434414"
       x2="182.87831"
       y2="45.434414"
       gradientUnits="userSpaceOnUse"
       gradientTransform="translate(-27.935541,-2.2489583)" />
  </defs>
  <g
     inkscape:label="Layer 1"
     inkscape:groupmode="layer"
     id="layer1"
     transform="translate(-8.9003069,-29.929811)">
    <path
       id="text26"
       style="font-size:34.2194px;line-height:0;font-family:Tomorrow;-inkscape-font-specification:'Tomorrow, Normal';fill:url(#linearGradient33);stroke:#000000;stroke-width:1.29117;stroke-linecap:round;stroke-linejoin:miter;stroke-dasharray:none;stroke-dashoffset:0"
       d="m 13.104848,30.575395 -3.5589561,3.593062 v 6.399093 l 3.5589561,3.558956 h 9.752376 l 1.84795,1.882056 v 5.030183 l -1.84795,1.882056 H 10.43576 v 2.87476 h 13.824479 l 3.558956,-3.593062 v -7.220748 l -3.558956,-3.593063 h -9.752376 l -1.847949,-1.882055 -0.03411,-4.174422 1.882056,-1.882056 h 12.010637 v -2.87476 z m 75.385061,0 v 2.87476 h 3.11402 13.140291 v -2.87476 z m 19.573481,0 v 25.220166 h 3.01119 V 30.575395 Z m -75.01764,2.737817 -0.02532,4.58525 h -1.950785 v 2.395203 h 1.882056 v 12.387874 l 3.148645,3.114022 h 4.448307 v -2.498039 h -2.977079 l -1.608171,-1.6769 V 40.293665 h 3.798216 v -2.395203 h -3.798218 v -4.58525 z m 44.116679,0.0083 -0.0331,4.576982 h -1.95078 v 2.395203 h 1.88206 v 12.387874 l 3.14812,3.114022 h 4.44883 v -2.498071 h -2.97708 l -1.60869,-1.6769 V 40.293665 h 3.79874 v -2.395203 h -3.79874 v -4.58525 z m -32.952503,4.57695 v 17.897099 h 3.011703 V 44.263448 l 3.250447,-3.3538 H 54.9209 v -3.011186 h -4.585766 l -3.113505,3.216858 v -3.216858 z m 13.859102,0 v 2.532145 h 8.486304 l 1.847949,1.882056 v 2.224671 h -9.102286 l -3.558956,3.593062 v 4.072103 l 3.558956,3.593062 h 6.330363 l 2.771923,-2.771924 v 2.771924 h 3.011186 V 41.491525 l -3.558956,-3.593063 z m 58.412452,0 v 14.304037 l 3.55896,3.593062 h 6.50141 l 2.73782,-2.771924 v 2.771924 h 3.01119 V 37.898462 h -3.01119 v 11.977047 l -3.52485,3.524333 h -4.44831 l -1.84795,-1.916162 0.0341,-13.585218 z m 19.06034,0 6.29626,8.691976 -6.33088,9.205123 h 3.6959 l 4.99607,-7.733895 h 0.75293 l 5.06429,7.733895 h 3.66127 l -6.29625,-9.205123 6.29625,-8.691976 h -3.59254 l -5.09892,7.254855 h -0.78703 l -5.09891,-7.254855 z m -47.051911,3.695899 v 14.2012 h 3.11402 V 44.434497 H 103.13605 V 41.594361 H 91.603929 Z M 68.403281,46.89843 v 3.011185 l -3.524849,3.490227 H 60.63528 l -1.882056,-1.882056 v -2.737301 l 1.882056,-1.847949 z"
       sodipodi:nodetypes="ccccccccccccccccccccccccccccccccccccccccccccccccccccccccccccccccccccccccccccccccccccccccccccccccccccccccccccccccccccccccccccccccccccccccccc"
       inkscape:export-filename="LongLogo.svg"
       inkscape:export-xdpi="244.87122"
       inkscape:export-ydpi="244.87122" />
    <text
       xml:space="preserve"
       style="font-style:normal;font-variant:normal;font-weight:normal;font-stretch:normal;font-size:14.1111px;line-height:0;font-family:Tomorrow;-inkscape-font-specification:'Tomorrow, Normal';font-variant-ligatures:normal;font-variant-caps:normal;font-variant-numeric:normal;font-variant-east-asian:normal;fill:#ff1dff;fill-opacity:1;stroke:#000000;stroke-width:0.0264583;stroke-linecap:round;stroke-linejoin:miter;stroke-dasharray:none;stroke-dashoffset:0;stroke-opacity:1;paint-order:normal"
       x="156.50104"
       y="56.427948"
       id="text40"><tspan
         sodipodi:role="line"
         id="tspan40"
         style="font-size:14.1111px;fill:#000000;fill-opacity:1;stroke-width:0.0264583"
         x="156.50104"
         y="56.427948">.com</tspan></text>
  </g>
</svg>
